<?xml version="1.0" encoding="utf-8" ?><svg xmlns="http://www.w3.org/2000/svg" xmlns:xlink="http://www.w3.org/1999/xlink" width="1092" height="1092" viewBox="0 0 1092 1092"><path fill="#FDFDFD" d="M547.317 216.841C547.632 218.772 548.58 223.845 548.627 225.616C549.902 230.696 550.702 235.868 551.582 241.031L552.134 238.257C554.735 237.219 564.917 238.132 568.307 238.373C604.936 240.843 640.878 249.524 674.596 264.044C753.742 298.148 816.167 362.2 848.222 442.197C860.45 473.026 865.404 496.662 869.625 529.08C878.16 529.059 887.9 528.742 896.282 529.135C896.701 535.989 897.068 542.827 896.419 549.687C914.715 550.408 934.179 550.096 952.563 550.082C973.908 550.252 995.254 550.139 1016.6 549.743C1010.25 554.351 1004.12 561.523 997.917 566.873C983.291 579.243 968.883 591.868 954.699 604.743C945.172 613.228 939.043 618.201 929.599 627.557C934.992 633.192 941.54 638.808 947.522 643.858C970.957 663.644 993.385 685.199 1016.76 704.999C1007.38 704.02 991.663 704.501 981.631 704.496L917.778 704.496C913.074 704.497 894.01 704.957 890.79 703.709L890.174 702.829C890.732 701.461 890.252 701.992 891.51 701.108C887.594 699.394 879.88 697.161 875.515 695.76L846.665 686.42C814.607 763.721 754.039 825.726 677.512 859.589C598.523 894.376 508.971 896.467 428.445 865.403C360.99 839.166 304.151 791.281 266.845 729.258C257.947 714.428 252.153 702.162 245.237 686.441C235.516 689.667 225.77 692.817 216 695.89C212.006 697.166 204.092 699.488 200.46 701.111L201.546 701.899C201.608 704.013 200.151 704.508 198.088 704.486C157.183 704.053 115.959 705.283 75.09 704.384C78.0399 702.333 80.7536 700.158 83.4763 697.801C107.663 676.869 131.534 655.469 155.371 634.172C158.237 631.612 159.873 630.03 163.11 627.77C153.717 618.553 140.494 607.554 130.502 598.715L75.312 549.701C115.135 549.7 155.894 550.201 195.635 549.573C195.416 543.122 195.628 535.619 195.671 529.083C202.444 529.533 215.854 529.496 222.46 529.05L237.011 529.025C240.843 529.319 243.721 529.176 247.557 529.028C254.859 463.505 283.649 402.242 329.433 354.802C382.592 299.519 458.462 264.302 535.424 262.749C529.206 295.334 523.945 330.178 517.152 362.335L516.545 366.174L514.779 376.073L514.047 379.878L503.095 440.311L503.922 440.672C505.436 434.588 506.702 426.39 507.856 420.038L514.551 383.176L534.875 271.402L541.587 234.319C542.287 230.464 543.977 219.781 544.922 216.89L547.317 216.841Z"/><path fill="#D23239" d="M832.158 683.855C834.959 683.847 837.589 683.778 840.381 684.062C842.67 685.321 844.19 685.672 846.665 686.42C814.607 763.721 754.039 825.726 677.512 859.589C598.523 894.376 508.971 896.467 428.445 865.403C360.99 839.166 304.151 791.281 266.845 729.258C257.947 714.428 252.153 702.162 245.237 686.441C247.684 685.7 249.063 685.407 251.286 684.089C254.245 683.906 256.861 683.63 259.814 683.944C263.538 683.981 267.612 684.102 271.301 683.981C308.694 683.5 346.672 683.825 384.1 683.829L581.834 683.843L736.314 683.831C764.006 683.827 793.098 683.355 820.691 683.987C824.19 683.973 828.753 684.077 832.158 683.855Z"/><path fill="#D23239" d="M832.158 683.855C834.959 683.847 837.589 683.778 840.381 684.062C842.67 685.321 844.19 685.672 846.665 686.42C814.607 763.721 754.039 825.726 677.512 859.589C598.523 894.376 508.971 896.467 428.445 865.403C360.99 839.166 304.151 791.281 266.845 729.258C257.947 714.428 252.153 702.162 245.237 686.441C247.684 685.7 249.063 685.407 251.286 684.089C254.245 683.906 256.861 683.63 259.814 683.944C263.538 683.981 267.612 684.102 271.301 683.981C279.056 700.307 284.993 711.902 295.011 727.119C331.145 781.835 384.094 823.315 445.869 845.299C521.007 871.814 603.595 867.429 675.503 833.107C741.554 801.523 789.975 749.943 820.691 683.987C824.19 683.973 828.753 684.077 832.158 683.855Z"/><path fill="#F2EECD" d="M259.814 683.944C263.538 683.981 267.612 684.102 271.301 683.981C279.056 700.307 284.993 711.902 295.011 727.119C331.145 781.835 384.094 823.315 445.869 845.299C521.007 871.814 603.595 867.429 675.503 833.107C741.554 801.523 789.975 749.943 820.691 683.987C824.19 683.973 828.753 684.077 832.158 683.855C801.814 754.981 746.095 812.276 675.842 844.591C600.686 879.055 514.914 882.238 437.41 853.44C371.688 828.874 316.164 782.873 279.804 722.867C271.703 709.497 266.243 698.079 259.814 683.944Z"/><path fill="#F2EECD" d="M474.485 734.715C475.69 730.313 478.799 718.142 478.54 714.108C477.723 713.333 476.896 712.78 475.94 712.187C475.642 710.263 475.588 711.231 476.425 709.22C478.221 708.839 479.138 709.79 481.153 710.86C482.756 709.854 483.722 708.97 485.574 708.992C486.815 710.083 486.43 709.421 486.753 711.056C485.833 713.407 484.179 712.575 482.57 716.204C481.343 721.413 481.698 722.26 481.225 727.328C481.053 729.179 477.146 736.239 477.53 739.154C477.828 741.419 479.927 743.357 479.739 745.863C476.444 747.755 474.281 744.23 469.979 746.2C468.987 746.654 468.902 746.408 467.766 746.155L467.253 745.072C467.471 743.008 467.286 743.733 469.454 741.969C470.273 739.14 467.292 727.069 466.097 723.891C465.478 727.507 462.132 739.291 463.168 741.816C464.418 742.743 465.235 743.117 465.703 744.578C465.256 746.264 465.73 745.677 464.426 746.536C462.171 746.672 461.951 746.437 459.936 745.23C458.722 744.503 457.567 746.377 454.284 746.893C452.565 746.215 453.258 746.742 452.152 745.229L452.44 743.971C453.035 743.431 454.695 742.043 454.817 741.372C455.213 736.318 452.943 731.735 451.174 727.233C450.588 725.741 451.508 721.728 450.748 719.548C449.224 715.179 450.498 714.396 446.168 712.82C444.965 711.456 445.379 711.477 445.273 709.121C446.874 709.089 448.121 709.049 449.591 709.75C453.808 711.758 452.702 709.892 457.146 708.766C459.082 709.304 458.279 708.801 459.598 710.396C458.949 713.071 456.572 713.385 456.421 714.544C455.998 717.784 459.45 731.093 460.177 734.322C461.961 729.326 462.692 722.655 463.979 717.413C464.641 714.715 463.982 712.37 464.077 709.581C468.869 711.275 467.456 709.647 471.091 709.497C471.066 711.972 470.495 715.217 470.931 717.595C471.984 723.335 473.436 728.954 474.485 734.715Z"/><path fill="#F2EECD" d="M358.833 708.722C372.693 708.358 372.466 717.732 367.344 727.561C367.697 728.048 370.009 731.194 370.102 731.521C373.242 742.5 365.779 750.297 354.666 745.547L354.121 744.934C351.893 745.704 349.648 747.373 347.407 746.321C346.637 744.207 346.515 745.108 347.129 743.466C348.71 742.713 349.22 742.575 350.483 741.306C351.365 738.079 351.112 732.353 351.003 728.857C350.349 728.194 350.127 727.957 349.554 727.278C350.487 723.763 352.433 717.216 350.251 714.005C348.848 713.204 348.295 712.87 346.957 711.879C346.718 710.153 346.622 711.025 347.673 709.252C349.988 708.76 351.527 709.882 353.843 711.008L358.833 708.722Z"/><path fill="#D23239" d="M356.929 728.837C365.43 729.418 366.027 735.469 362.823 742.342C360.462 743.286 360.239 743.271 358.174 742.092C355.994 738.863 356.788 732.961 356.929 728.837Z"/><path fill="#D23239" d="M358.756 712.733C366.219 712.897 365.559 720.927 361.879 725.055C360.145 725.313 360.039 725.297 358.281 725.165C355.061 722.732 356.662 715.499 358.756 712.733Z"/><path fill="#F2EECD" d="M705.328 708.697C711.545 708.698 714.952 710.221 717.218 716.509C720.441 725.457 720.343 743.474 709.474 746.986C704.253 747.177 700.521 745.733 698.445 740.494C694.522 730.589 694.138 713.798 705.328 708.697Z"/><path fill="#D23239" d="M706.475 712.587C715.767 713.468 710.343 723.05 710.806 727.613C711.456 734.015 714.387 737.156 708.29 743.333C700.004 741.458 704.315 731.617 704.166 726.758C704 721.303 700.675 718.578 706.475 712.587Z"/><path fill="#F2EECD" d="M390.801 708.713C404.662 708.449 403.694 718.887 399.266 728.618C403.773 734.173 400.496 734.076 401.692 741.122C403.331 742.294 406.004 743.82 406.065 745.932C403.182 747.446 401.801 745.734 398.913 745.115C397.787 745.992 397.787 746.093 396.462 746.548L395.774 746.073C395.073 742.58 395.768 736.432 395.404 732.203C393.926 729.527 392.291 728.548 389.357 729.474L389.067 730.888C389.008 733.761 388.937 736.562 389.083 739.445C389.247 742.67 391.493 742.29 393.433 745.187L393.104 745.982C389.549 746.978 388.98 746.759 386.08 744.899C383.573 746.078 381.771 747.481 379.163 746.175C378.679 743.864 378.419 744.79 379.391 743.171C380.951 742.686 381.504 742.699 382.605 741.521C383.577 737.461 382.992 733.372 382.226 729.279C381.164 725.016 383.947 720.897 383.197 716.522C382.642 713.286 380.21 713.739 378.981 711.746C379.039 709.736 378.697 710.563 379.854 709.11C382.271 708.866 383.467 709.933 386.041 710.994C387.747 710.091 389.032 709.486 390.801 708.713Z"/><path fill="#D23239" d="M390.598 712.627C392.352 712.706 392.325 712.622 393.911 713.303C396.967 716.498 396.318 721.605 394.1 725.07C391.715 725.25 391.657 725.654 389.918 724.712C388.084 721.3 388.438 715.77 390.598 712.627Z"/><path fill="#F2EECD" d="M617.294 711.333C617.661 711.341 618.027 711.356 618.394 711.377C629.069 712.035 627.648 722.145 620.29 727.802C622.149 730.146 624.399 733.566 626.968 734.759C628.907 733.18 626.649 729.651 628.297 726.43L629.414 726.1C631.472 726.812 631.542 726.926 633.215 728.391C633.563 730.328 632.797 734.376 632.587 736.148C632.479 737.063 630.577 736.162 629.326 738.424C630.039 740.812 633.19 742.602 635.29 744.036C635.163 745.737 635.504 745.072 634.417 746.182C632.099 746.166 628.021 746.738 626.332 746.125L626.505 744.573C625.676 744.022 606.481 753.145 607.357 737.006C607.645 731.693 609.596 730.225 613.26 726.879C609.477 719.867 608.482 714.101 617.294 711.333Z"/><path fill="#D23239" d="M616.21 730.78C618.824 732.462 622.296 736.982 623.477 740.09C622.935 741.905 623.435 741.07 621.383 742.322C612.177 743.358 612.77 736.769 616.21 730.78Z"/><path fill="#D23239" d="M617.228 714.801C619.141 715.106 619.023 715.036 620.59 716.16C622.442 719.674 620.939 721.309 618.41 723.772C617.227 723.828 617.791 723.843 616.504 723.039C614.747 720.002 615.19 717.472 617.228 714.801Z"/><path fill="#F2EECD" d="M518.795 709.093C521.912 709.103 522.109 709.467 525.027 710.812C526.361 709.843 527.109 709.066 528.732 708.931C530.523 710.394 528.77 711.493 529.991 714.225C532.683 720.251 535.613 726.331 538.441 732.278C538.399 728.344 539.226 716.658 537.601 714.04C536.215 713.305 535.184 712.974 534.415 711.639C534.674 709.754 534.217 710.379 535.33 709.351C540.492 708.706 537.222 711.789 544.354 709.003C546.174 709.446 545.366 709.034 546.79 710.416C546.528 713.404 542.933 712.899 542.551 715.828C541.876 721.003 544.364 725.539 542.974 730.603C541.654 735.413 542.877 740.926 543.757 745.902L542.977 746.965C540.024 744.79 541.349 745.435 536.704 746.063C536.628 739.676 530.06 728.075 526.938 721.542C526.948 725.716 526.17 739.785 528.165 742.298C529.631 742.722 529.923 742.597 530.831 743.737C530.848 745.785 531.156 744.941 530.249 746.468C527.584 746.755 527.235 746.265 524.945 744.941C522.908 746.043 521.629 747.092 519.614 746.509C518.638 744.81 518.729 745.659 519.122 743.909C520.2 743.081 522.626 741.419 522.793 740.164C523.355 735.787 522.028 731.146 521.992 726.781C521.96 722.99 524.121 717.234 521.878 713.716C518.741 712.099 519.056 712.377 518.795 709.093Z"/><path fill="#F2EECD" d="M564.216 708.7C569.579 708.71 567.656 709.722 571.861 711.116L573.623 709.841L574.06 710.187C574.658 713.499 575.059 717.054 574.161 720.334C571.716 722.3 570.141 722.072 568.01 719.739C567.398 717.043 568.115 717.344 568.688 714.219C567.33 712.966 567.215 713.08 565.445 712.729C560.091 714.501 562.191 722.619 562.064 727.031C561.921 731.977 560.178 739.345 564.701 742.738C566.741 742.903 565.841 743.158 567.492 741.936C569.271 738.521 568.882 737.115 568.949 733.414C569.055 727.554 566.804 729.624 565.906 724.37C569.43 724.448 568.854 725.077 572.117 725.91C573.718 724.929 574.137 724.529 576.026 724.265C576.689 728.803 573.16 738.156 575.315 743.283C575.65 744.081 575.621 745.966 574.966 746.749C573.704 745.874 573.215 745.367 571.683 745.186C554.726 757.387 546.586 714.433 564.216 708.7Z"/><path fill="#F2EECD" d="M426.881 708.632C428.358 708.831 435.622 710.643 435.779 712.28C436.068 715.282 437.586 718.193 435.745 720.847C434.726 721.436 433.231 721.84 432.129 721.478C427.888 720.083 429.757 716.653 430.449 714.463L429.575 713.689C427.143 713.174 428.232 713.016 426.16 713.817C423.808 716.771 424.425 721.028 424.468 724.904C427.326 724.787 429.591 724.058 431.435 726.462C431.464 728.035 431.642 727.31 430.647 728.603C428.827 729.597 426.635 729.206 424.49 729.103C424.46 731.67 423.357 744.899 428.824 742.476C431.041 738.624 428.068 738.347 431.723 733.999C433.103 734.08 433.4 734.189 434.753 734.542C437.808 737.172 437.143 742.45 435.215 745.667L433.54 744.547C429.272 748.192 426.185 746.516 421.218 745.181C418.998 746.268 416.776 747.275 414.549 745.864C414.42 743.87 414.197 744.737 414.97 743.112C421.734 741.219 417.271 732.061 417.466 726.761C417.625 722.436 420.207 717.384 417.249 713.727C415.804 713.077 415.407 713.074 414.499 711.788C414.338 709.71 414.046 710.583 415.264 709.036C417.835 708.665 419.097 709.679 421.572 710.937C423.562 709.94 424.794 709.405 426.881 708.632Z"/><path fill="#F2EECD" d="M675.985 708.709C681.688 708.591 679.729 709.498 684.096 711.095L685.619 709.776L686.095 710.129C686.869 713.383 687.111 716.758 686.338 720.029C684.414 722.109 682.607 722.193 680.359 720.29C679.371 718.137 680.544 716.324 680.344 713.755C678.853 712.551 679.727 712.989 677.431 712.883C671.953 715.162 673.791 722.859 674.68 727.332C672.697 731.006 673.022 739.355 676.308 742.432C680.227 743.518 680.93 741.461 681.997 738.123C681.966 735.57 681.349 730.46 684.553 729.867C688.396 732.462 687.258 743.623 682.619 745.858C677.55 748.556 671.119 746.381 669.014 740.812C665.291 730.962 664.378 713.525 675.985 708.709Z"/><path fill="#F2EECD" d="M495.465 709.135C498.129 708.996 499.451 709.36 501.838 710.434C503.075 710.991 505.352 709.55 507.247 708.831C509.17 709.087 508.44 708.652 509.604 710.005C509.074 713.592 502.674 716.256 505.965 723.999C507.825 728.375 503.614 736.894 506.283 741.581C507.431 743.597 508.43 741.414 510.289 745.332C508.792 746.637 508.379 746.579 506.439 746.602C504.814 745.738 503.921 745.045 502.091 745.085C499.361 746.615 499.049 747.104 496.246 746.356C495.584 744.699 495.65 745.534 496.1 743.76C500.888 739.956 500.489 737.211 499.12 731.099C497.791 725.164 501.513 718.747 498.785 713.816C495.535 712.131 495.951 712.547 495.465 709.135Z"/><path fill="#F2EECD" d="M728.227 741.422C729.279 740.734 730.63 740.7 731.715 741.335C732.8 741.97 733.432 743.165 733.347 744.419C733.262 745.673 732.475 746.771 731.314 747.255C729.734 747.912 727.913 747.258 727.112 745.746C726.312 744.233 726.795 742.359 728.227 741.422Z"/><path fill="#F2EECD" d="M547.317 216.841C547.632 218.772 548.58 223.845 548.627 225.616C549.902 230.696 550.702 235.868 551.582 241.031L552.134 238.257C554.735 237.219 564.917 238.132 568.307 238.373C604.936 240.843 640.878 249.524 674.596 264.044C753.742 298.148 816.167 362.2 848.222 442.197C860.45 473.026 865.404 496.662 869.625 529.08L854.965 529.024C850.932 529.234 848.594 529.243 844.566 529.009C823.347 529.769 798.364 528.962 776.676 529.118L773.126 529.007C769.156 528.997 764.036 528.837 760.209 529.333C758.241 529.741 747.792 529.588 745.061 529.589L705.962 529.326C687.129 529.141 668.091 529.439 649.244 529.039C647.189 528.995 646.078 528.731 644.404 527.64C641.643 528.643 639.087 529.131 636.169 529.005C618.566 528.244 598.789 530.112 581.375 528.83L580.585 526.966C580.042 527.399 579.374 527.933 578.58 528.566C569.517 529.812 555.94 528.857 546.909 529.137L545.165 528.749C536.837 530.144 522.864 528.646 514.003 528.869C513.567 528.88 512.661 528.162 512.338 527.908C510.537 525.138 495.262 509.648 492.002 506.195C491.16 505.594 490.908 504.87 490.343 503.909C493.419 491.824 496.695 469.693 499.055 456.705L487.852 447.963L488.493 447.218L500.064 456.126C501.209 451.379 502.182 445.204 503.095 440.311L503.922 440.672C505.436 434.588 506.702 426.39 507.856 420.038L514.551 383.176L534.875 271.402L541.587 234.319C542.287 230.464 543.977 219.781 544.922 216.89L547.317 216.841Z"/><path fill="#D23239" d="M556.699 262.664C637.156 265.49 713.096 300.558 767.421 359.974C811.462 408.043 836.522 464.587 844.566 529.009C823.347 529.769 798.364 528.962 776.676 529.118L773.126 529.007C769.156 528.997 764.036 528.837 760.209 529.333L756.817 528.951C754.769 520.948 750.675 510.602 747.18 503.159L749.991 501.272C753.394 499.077 756.823 496.925 760.278 494.815L763.294 492.676L789.311 475.819C779.42 477.217 766.987 479.112 757.245 481L753.652 481.526L741.283 483.709L737.464 484.192C736.404 481.489 732.756 475.89 731.09 473.314C718.273 453.755 702.438 436.35 684.173 421.746L685.7 418.732C687.372 415.506 688.904 412.185 690.459 408.9L692.15 405.813C696.529 395.18 703.684 383.228 708.348 372.013C710.041 368.771 711.687 365.659 713.209 362.33L673.236 393.294L670.456 395.352L661.534 402.33L658.674 404.437C632.317 389.73 607.753 381.159 577.622 377.47L576.75 373.86L575.085 363.935L574.308 360.426C573.567 352.765 570.146 336.783 568.695 328.843L556.699 262.664Z"/><path fill="#D23239" d="M690.459 408.9C714.464 425.926 739.88 455.597 753.652 481.526L741.283 483.709L737.464 484.192C736.404 481.489 732.756 475.89 731.09 473.314C718.273 453.755 702.438 436.35 684.173 421.746L685.7 418.732C687.372 415.506 688.904 412.185 690.459 408.9Z"/><path fill="#1F3145" d="M685.7 418.732C709.741 437.896 726.053 457.007 741.283 483.709L737.464 484.192C736.404 481.489 732.756 475.89 731.09 473.314C718.273 453.755 702.438 436.35 684.173 421.746L685.7 418.732Z"/><path fill="#D23239" d="M575.085 363.935C609.871 368.624 640.069 376.775 670.456 395.352L661.534 402.33L658.674 404.437C632.317 389.73 607.753 381.159 577.622 377.47L576.75 373.86L575.085 363.935Z"/><path fill="#1F3145" d="M576.75 373.86C606.273 377.542 636.119 386.595 661.534 402.33L658.674 404.437C632.317 389.73 607.753 381.159 577.622 377.47L576.75 373.86Z"/><path fill="#D23239" d="M760.278 494.815C765.13 504.578 770.488 518.363 773.126 529.007C769.156 528.997 764.036 528.837 760.209 529.333L756.817 528.951C754.769 520.948 750.675 510.602 747.18 503.159L749.991 501.272C753.394 499.077 756.823 496.925 760.278 494.815Z"/><path fill="#1F3145" d="M749.991 501.272C753.242 506.984 759.298 523.163 760.209 529.333L756.817 528.951C754.769 520.948 750.675 510.602 747.18 503.159L749.991 501.272Z"/><path fill="#1F3145" d="M623.514 370.526C624.612 366.523 627.351 354.329 630.431 352.277C632.372 355.094 627.826 368.058 626.74 371.689C636.868 374.639 665.243 386.802 673.236 393.294L670.456 395.352C640.069 376.775 609.871 368.624 575.085 363.935L574.308 360.426C593.269 362.887 605.092 364.771 623.514 370.526Z"/><path fill="#1F3145" d="M692.15 405.813C704.333 415.355 725.334 433.552 733.927 446.393C738.41 443.368 745.517 437.963 750.512 436.861L751.342 437.217C750.476 440.727 739.759 446.752 736.295 448.904C744.419 460.03 750.652 468.829 757.245 481L753.652 481.526C739.88 455.597 714.464 425.926 690.459 408.9L692.15 405.813Z"/><path fill="#1F3145" d="M763.294 492.676C767.2 501.567 775.109 519.842 776.676 529.118L773.126 529.007C770.488 518.363 765.13 504.578 760.278 494.815L763.294 492.676Z"/><path fill="#1F3145" d="M547.317 216.841C547.632 218.772 548.58 223.845 548.627 225.616C549.902 230.696 550.702 235.868 551.582 241.031L599.873 506.187C596.768 509.604 581.806 524.52 580.585 526.966C580.042 527.399 579.374 527.933 578.58 528.566C569.517 529.812 555.94 528.857 546.909 529.137L545.165 528.749C536.837 530.144 522.864 528.646 514.003 528.869C513.567 528.88 512.661 528.162 512.338 527.908C510.537 525.138 495.262 509.648 492.002 506.195C491.16 505.594 490.908 504.87 490.343 503.909C493.419 491.824 496.695 469.693 499.055 456.705L487.852 447.963L488.493 447.218L500.064 456.126C501.209 451.379 502.182 445.204 503.095 440.311L503.922 440.672C505.436 434.588 506.702 426.39 507.856 420.038L514.551 383.176L534.875 271.402L541.587 234.319C542.287 230.464 543.977 219.781 544.922 216.89L547.317 216.841Z"/><path fill="#1F3145" d="M548.627 225.616C549.902 230.696 550.702 235.868 551.582 241.031L599.873 506.187C596.768 509.604 581.806 524.52 580.585 526.966C580.042 527.399 579.374 527.933 578.58 528.566C569.517 529.812 555.94 528.857 546.909 529.137L546.92 332.49L546.901 267.779C546.896 256.627 546.556 243.526 547.028 232.611C548.589 229.385 546.975 228.356 548.627 225.616Z"/><path fill="#FDFDFD" d="M547.317 216.841C547.632 218.772 548.58 223.845 548.627 225.616C546.975 228.356 548.589 229.385 547.028 232.611C546.556 243.526 546.896 256.627 546.901 267.779L546.92 332.49L546.909 529.137L545.165 528.749C544.674 500.708 545.04 471.689 545.041 443.589L545.053 288.421C545.056 264.793 545.344 240.447 544.922 216.89L547.317 216.841Z"/><path fill="#313235" d="M547.317 216.841C547.632 218.772 548.58 223.845 548.627 225.616C546.975 228.356 548.589 229.385 547.028 232.611C546.683 227.988 546.97 221.454 547.317 216.841Z"/><path fill="#FDFDFD" d="M500.064 456.126C501.209 451.379 502.182 445.204 503.095 440.311L503.922 440.672C503.218 445.995 502.191 451.577 501.134 456.85C497.864 473.174 495.505 489.943 492.002 506.195C491.16 505.594 490.908 504.87 490.343 503.909C493.419 491.824 496.695 469.693 499.055 456.705L487.852 447.963L488.493 447.218L500.064 456.126Z"/><path fill="#D23239" d="M552.134 238.257C554.735 237.219 564.917 238.132 568.307 238.373C604.936 240.843 640.878 249.524 674.596 264.044C753.742 298.148 816.167 362.2 848.222 442.197C860.45 473.026 865.404 496.662 869.625 529.08L854.965 529.024C847.914 462.729 819.583 400.5 774.211 351.651C716.422 289.079 639.423 255.478 554.758 252.063L552.134 238.257Z"/><path fill="#D23239" d="M684.173 421.746C702.438 436.35 718.273 453.755 731.09 473.314C732.756 475.89 736.404 481.489 737.464 484.192L646.334 499.164L678.341 433.561C680.422 429.81 682.317 425.639 684.173 421.746Z"/><path fill="#D23239" d="M577.622 377.47C607.753 381.159 632.317 389.73 658.674 404.437C637.789 421.355 613.42 439.669 591.917 455.988C590.709 450.765 589.786 444.955 588.847 439.651C585.182 418.931 581.116 398.214 577.622 377.47Z"/><path fill="#1F3145" d="M601.508 507.7C620.234 503.75 645.278 500.453 664.596 497.293L777.136 478.835C764.246 484.32 748.039 489.6 734.686 494.587C704.721 505.777 674.305 516.283 644.404 527.64C641.643 528.643 639.087 529.131 636.169 529.005C618.566 528.244 598.789 530.112 581.375 528.83C584.527 524.777 597.434 511.802 601.508 507.7Z"/><path fill="#1F3145" d="M706.29 373.321C706.755 372.786 707.65 372.404 708.348 372.013C703.684 383.228 696.529 395.18 692.15 405.813L690.459 408.9C688.904 412.185 687.372 415.506 685.7 418.732L684.173 421.746C682.317 425.639 680.422 429.81 678.341 433.561L677.651 432.797C667.025 452.6 655.487 477.829 645.487 498.341C632.326 500.262 616.113 502.832 603.183 505.336C611.346 495.992 622.31 480.963 630.341 470.643L677.779 409.626C687.008 397.751 696.707 384.843 706.29 373.321Z"/><path fill="#F1C6CA" d="M706.29 373.321C706.755 372.786 707.65 372.404 708.348 372.013C703.684 383.228 696.529 395.18 692.15 405.813L690.459 408.9C688.904 412.185 687.372 415.506 685.7 418.732L684.173 421.746C682.317 425.639 680.422 429.81 678.341 433.561L677.651 432.797C683.679 419.179 691.326 405.344 697.666 391.799C700.239 386.301 704.353 378.814 706.29 373.321Z"/><path fill="#D23239" d="M707.416 529.015L747.18 503.159C750.675 510.602 754.769 520.948 756.817 528.951L707.416 529.015Z"/><path fill="#D23239" d="M247.557 529.028C254.859 463.505 283.649 402.242 329.433 354.802C382.592 299.519 458.462 264.302 535.424 262.749C529.206 295.334 523.945 330.178 517.152 362.335L516.545 366.174L514.779 376.073L514.047 379.878L503.095 440.311C502.182 445.204 501.209 451.379 500.064 456.126L488.493 447.218L487.852 447.963L499.055 456.705C496.695 469.693 493.419 491.824 490.343 503.909C490.908 504.87 491.16 505.594 492.002 506.195C495.262 509.648 510.537 525.138 512.338 527.908C510.984 528.136 511.051 527.849 510.411 528.543C505.512 529.938 461.806 528.692 452.838 528.901C451.661 528.928 449.375 528.285 448.161 527.861C440.536 531.14 409.982 528.425 400.013 529.357C396.771 529.66 377.653 529.607 375.075 529.054C367.117 528.728 357.086 529.025 348.966 529.034L345.436 529.052L332.541 529.032L329.122 529.132C321.613 528.675 309.861 529.046 301.863 529.043L247.557 529.028Z"/><path fill="#F2EECD" d="M378.696 362.372C394.222 374.211 409.676 386.143 425.058 398.167L427.75 400.156L436.669 407.105L439.531 409.179C455.553 421.795 472.824 434.433 488.493 447.218L487.852 447.963L499.055 456.705C496.695 469.693 493.419 491.824 490.343 503.909C490.908 504.87 491.16 505.594 492.002 506.195C495.262 509.648 510.537 525.138 512.338 527.908C510.984 528.136 511.051 527.849 510.411 528.543C505.512 529.938 461.806 528.692 452.838 528.901C451.661 528.928 449.375 528.285 448.161 527.861C440.536 531.14 409.982 528.425 400.013 529.357C396.771 529.66 377.653 529.607 375.075 529.054C367.117 528.728 357.086 529.025 348.966 529.034L345.436 529.052L332.541 529.032C335.022 520.108 338.523 510.049 342.425 501.723L339.326 499.543L302.535 475.625C317.202 478.456 333.061 480.123 347.469 483.119L351.156 483.651C354.747 484.233 360.315 485.327 363.771 485.665L367.15 486.285C374.56 470.517 397.882 440.837 411.989 430.318L410.237 426.713L405.313 416.745L403.862 413.608C395.306 396.652 387.257 379.365 378.696 362.372Z"/><path fill="#1F3145" d="M385.315 368.683C396.845 378.152 410.258 388.07 422.169 397.275L487.852 447.963L499.055 456.705C496.695 469.693 493.419 491.824 490.343 503.909C487.321 500.814 480.14 491.062 477.175 487.237L451.463 454.085L409.044 399.613C401.428 389.832 392.282 378.673 385.315 368.683Z"/><path fill="#1F3145" d="M313.862 478.555L434.631 498.463L471.601 504.503C476.815 505.359 485.506 506.534 490.441 507.739C496.843 513.967 504.312 521.918 510.411 528.543C505.512 529.938 461.806 528.692 452.838 528.901C451.661 528.928 449.375 528.285 448.161 527.861C403.731 511.063 358.064 495.623 313.862 478.555Z"/><path fill="#D23239" d="M411.989 430.318C423.266 453.216 434.432 476.684 445.944 499.411C437.75 497.593 428.129 496.257 419.762 494.886L367.15 486.285C374.56 470.517 397.882 440.837 411.989 430.318Z"/><path fill="#D23239" d="M342.425 501.723C345.944 503.888 349.15 505.89 352.548 508.233L355.298 509.989C353.27 515.823 350.586 523.143 348.966 529.034L345.436 529.052L332.541 529.032C335.022 520.108 338.523 510.049 342.425 501.723Z"/><path fill="#1F3145" d="M352.548 508.233L355.298 509.989C353.27 515.823 350.586 523.143 348.966 529.034L345.436 529.052C346.375 524.027 350.651 513.202 352.548 508.233Z"/><path fill="#D23239" d="M355.298 509.989L384.715 529.073C381.806 529.049 377.893 528.914 375.075 529.054C367.117 528.728 357.086 529.025 348.966 529.034C350.586 523.143 353.27 515.823 355.298 509.989Z"/><path fill="#D23239" d="M514.047 379.878L503.095 440.311C502.182 445.204 501.209 451.379 500.064 456.126L488.493 447.218C472.824 434.433 455.553 421.795 439.531 409.179C455.729 397.44 494.154 381.846 514.047 379.878Z"/><path fill="#D23239" d="M516.545 366.174L514.779 376.073L514.047 379.878C494.154 381.846 455.729 397.44 439.531 409.179L436.669 407.105L427.75 400.156C451.097 385.308 488.617 368.29 516.545 366.174Z"/><path fill="#1F3145" d="M436.669 407.105C454.625 393.392 492.636 379.439 514.779 376.073L514.047 379.878C494.154 381.846 455.729 397.44 439.531 409.179L436.669 407.105Z"/><path fill="#D23239" d="M405.313 416.745L410.237 426.713L411.989 430.318C397.882 440.837 374.56 470.517 367.15 486.285L363.771 485.665C360.315 485.327 354.747 484.233 351.156 483.651C363.231 458.769 384.837 434.922 405.313 416.745Z"/><path fill="#1F3145" d="M410.237 426.713L411.989 430.318C397.882 440.837 374.56 470.517 367.15 486.285L363.771 485.665C364.297 483.199 367.4 478.365 368.892 475.928C380.845 456.403 393.879 442.398 410.237 426.713Z"/><path fill="#1F3145" d="M477.881 371.948C476.597 367.816 472.008 355.378 473.8 351.935C477.12 353.879 479.87 366.824 480.971 370.936C491.681 367.434 506.097 363.951 517.152 362.335L516.545 366.174C488.617 368.29 451.097 385.308 427.75 400.156L425.058 398.167C435.661 389.118 464.546 376.506 477.881 371.948Z"/><path fill="#1F3145" d="M370.611 447.622C378.813 436.85 393.41 421.996 403.862 413.608L405.313 416.745C384.837 434.922 363.231 458.769 351.156 483.651L347.469 483.119C353.482 471.686 360.47 460.794 368.356 450.562C365.423 447.784 354.13 439.118 353.564 436.173L354.314 435.363C357.654 435.376 367.496 444.895 370.611 447.622Z"/><path fill="#1F3145" d="M339.326 499.543L342.425 501.723C338.523 510.049 335.022 520.108 332.541 529.032L329.122 529.132C330.909 520.353 336.007 507.927 339.326 499.543Z"/><path fill="#1F3145" d="M840.381 684.062C858.137 683.84 875.894 683.775 893.651 683.867C893.713 687.75 894.094 697.735 893.264 700.871C892.073 701.232 892.66 701.169 891.51 701.108C887.594 699.394 879.88 697.161 875.515 695.76L846.665 686.42C844.19 685.672 842.67 685.321 840.381 684.062Z"/><path fill="#1F3145" d="M198.356 683.894C216 683.793 233.644 683.858 251.286 684.089C249.063 685.407 247.684 685.7 245.237 686.441C235.516 689.667 225.77 692.817 216 695.89C212.006 697.166 204.092 699.488 200.46 701.111C199.937 701.12 199.353 701.014 198.82 700.947C197.825 697.966 198.279 687.689 198.356 683.894Z"/><path fill="#1F3145" d="M201.378 535.412L890.673 535.406L890.599 677.61L201.334 677.506L201.378 535.412Z"/><path fill="#F2EECD" d="M503.863 547.226C526.823 544.705 536.548 562.732 538.828 582.445C539.297 586.493 539.068 592.587 540.128 596.269C549.993 600.86 539.873 605.046 539.878 604.975C538.559 626.097 537.945 653.052 512.432 658.446C506.477 658.727 501.402 658.981 495.707 656.434C481.222 649.955 477.676 631.62 476.428 617.482C476.217 615.09 475.835 606.416 475.182 604.747C473.418 603.885 473.2 603.9 471.791 602.467C471.085 600.633 471.239 600.566 471.571 598.677C472.629 597.142 473.863 596.976 475.666 596.35C475.94 576.26 480.032 551.099 503.863 547.226Z"/><path fill="#1F3145" d="M505.405 558.87C521.736 557.397 520.312 575.303 520.673 586.527C520.772 589.614 520.697 593.156 520.076 596.176C518.879 596.831 518.056 597.34 516.923 598.067C513.46 603.578 520.025 603.874 520.161 605.331C521.295 617.488 522.209 642.393 509.174 646.754C496.529 646.702 495.521 631.293 494.879 621.664C494.556 616.818 494.243 609.317 495.361 604.772C497.086 604.032 497.233 604.052 498.729 602.818C501.187 597.776 497.315 597.942 495.175 596.001C494.025 589.695 494.912 576.776 496.721 570.469C498.353 564.777 500.285 561.636 505.405 558.87Z"/><path fill="#F2EECD" d="M620.804 548.551C629.544 548.366 632.358 547.814 638.305 554.676C642.88 547.044 647.585 548.456 655.61 548.551L655.592 558.566C652.701 558.981 647.353 559.638 645.939 562.127C643.675 566.111 644.235 592.858 644.993 596.155C646.556 596.934 646.79 597.049 648.26 598.144C650.947 603.737 644.81 603.924 644.724 605.226C643.423 625.013 650.461 652.063 623.784 657.655C614.99 659.499 602.305 659.077 594.699 653.853C579.334 643.3 587.442 619.283 584.413 604.846C577.7 601.309 580.225 599.198 584.588 595.859C585.18 591.404 585.787 566.662 583.316 562.247C581.906 559.73 576.426 559.073 573.524 558.585L573.458 548.538C577.206 548.494 586.664 548.344 588.925 550.225C596.253 556.324 591.921 553.8 600.167 549.807C603.606 548.141 609.465 548.483 613.827 548.557L613.776 558.588C610.438 559.073 604.052 559.9 603.282 563.691C602.302 568.51 601.431 593.01 603.077 596.392C604.801 597.06 604.974 597.031 606.452 598.229C608.686 603.668 605.115 603.043 602.68 605.011C601.213 617.985 599.856 643.9 613.32 646.342C629.296 649.239 633.3 634.784 632 622.437C631.541 618.07 633.117 606.819 631.56 604.621C629.942 604.081 629.206 603.987 627.989 602.774C627.378 600.778 627.498 600.782 627.915 598.815C629.17 596.777 630.21 597.524 631.877 595.834C632.665 591.143 632.376 566.648 630.696 562.4C627.501 559.215 625.258 559.317 620.778 558.568L620.804 548.551Z"/><path fill="#F2EECD" d="M309.94 547.773C321.507 547.172 326.581 549.136 335.645 556.111L341.558 550.3C340.901 552.903 340.008 556.263 340.398 558.874C341.629 567.102 348.571 584.472 335.046 586.661C331.92 587.173 328.722 586.343 326.241 584.373C323.778 582.38 322.28 579.432 322.124 576.267C321.806 570.904 324.316 567.735 327.666 564.179C322.33 560.467 316.237 557.862 310.006 561.863C301.49 567.332 304.256 577.764 309.432 584.548C311.233 586.91 314.952 591.62 317.968 592.086C320.884 590.561 321.29 589.789 324.041 591.683C325.54 594.853 324.047 596.845 324.449 597.286C332.544 606.157 341.803 610.076 343.674 623.448C344.886 632.114 344.117 640.901 338.284 648.298C333.181 654.77 327.429 657.144 319.511 658.329C307.09 659.163 303.782 657.608 294.236 649.951L288.179 655.949C291.369 645.623 287.648 642.329 286.685 632.994C284.153 608.443 322.426 620.87 302.048 641.939C323.993 657.097 335.433 625.701 311.921 613.933C310.017 614.791 309.726 614.97 307.704 615.308C305.544 614.536 306.467 615.131 304.887 613.364C303.886 610.313 306.279 609.557 304.072 607.679C295.973 600.701 287.233 593.685 285.866 582.225C283.78 564.729 291.214 550.228 309.94 547.773Z"/><path fill="#F2EECD" d="M710.793 547.692C719.578 547.442 723.02 548.378 729.722 554.321C740.341 544.755 751.998 545.016 761.705 555.513C763.936 553.259 766.239 550.677 768.413 548.334C765.854 560.88 772.28 567.036 769.87 577.902C767.945 586.585 752.476 587.202 749.942 577.31C748.049 569.917 750.144 569.968 753.024 563.908C751.061 559.598 741.946 559.606 740.475 564.132C738.475 570.282 737.259 590.421 738.969 596.167C740.789 596.964 741.025 597.004 742.669 598.226C743.558 599.977 743.381 600.064 743.083 601.972C741.576 604.051 741.812 603.473 739.093 604.673C737.836 607.494 738.479 619.926 738.594 623.713C738.976 636.314 734.628 645.225 750.092 646.872L750.132 657.195C741.682 657.716 735.178 658.235 730.002 650.732C724.359 658.666 718.367 657.381 709.652 657.316L709.647 646.907C712.538 646.563 720.192 645.563 720.482 641.972C720.931 636.409 722.132 608.029 720.341 604.653C719.186 604.065 718.438 603.632 717.335 602.948C716.422 601.243 716.563 601.167 716.666 599.284C717.924 597.219 718.479 597.516 720.811 596.016C721.669 591.147 721.743 568.386 718.899 563.444C715.976 558.363 710.586 560.843 706.266 563.668C706.681 564.159 707.083 564.662 707.469 565.176C713.117 572.773 711.05 579.482 703.505 584.414C700.087 584.568 696.587 584.862 693.612 582.774C684.805 576.592 692.104 563.907 692.233 555.444C692.27 553.03 691.702 550.681 691.207 548.408L698.007 555.353C702.519 550.599 704.258 549.079 710.793 547.692Z"/><path fill="#F2EECD" d="M408.683 547.191C418.615 546.319 423.299 548.707 430.155 555.549C432.372 553.303 434.834 550.43 436.979 548.048C435.897 552.893 435.572 555.497 436.642 560.543C438.775 570.604 442.423 577.715 432.243 584.362C423.789 584.865 417.529 582.7 417.779 572.462C417.868 568.827 419.669 566.362 421.682 563.508C411.692 553.3 403.215 560.472 400.89 572.426C399.922 577.408 398.791 591.515 400.145 596.195C403.675 597.856 405.996 599.664 402.768 603.526C401.455 604.073 400.51 604.156 400.179 605.805C398.96 611.131 399.946 616.093 399.72 621.545C399.314 631.358 403.198 654.424 417.858 644.978C422.346 642.086 423.478 635.489 424.271 630.382C424.892 625.382 424.541 614.797 424.497 609.507L438.569 609.547C438.682 620.76 438.715 636.56 433.819 646.604C431.341 651.689 426.04 656.608 420.579 657.925C413.761 659.569 403.957 658.855 397.976 655.076C385.51 647.2 382.565 630.985 381.291 617.45C381.024 614.612 380.819 606.995 380.239 604.82C376.981 603.421 374.38 601.541 377.318 597.733C377.671 597.569 380.187 596.448 380.225 596.008C381.966 575.793 384.042 551.481 408.683 547.191Z"/><path fill="#1F3145" d="M92.112 556.215C103.316 555.916 115.8 556.185 127.086 556.184L195.433 556.179L195.412 698.566L115.972 698.551L91.6381 698.527C101.891 689.935 112.606 680.134 122.692 671.24L172.417 627.271C154.106 610.626 134.776 594.463 116.393 577.856C108.564 570.783 99.632 563.498 92.112 556.215Z"/><path fill="#1F3145" d="M896.632 556.147L1000.11 556.179C974.479 579.759 945.848 604.187 919.513 627.232C931.451 638.489 946.24 650.88 958.69 661.878L1000.32 698.572L896.584 698.546L896.632 556.147Z"/><path fill="#D23239" d="M222.46 529.05C233.016 439.759 274.044 363.004 345.086 307.058C391.121 270.79 446.15 247.719 504.285 240.313C514.411 239.024 529.821 237.583 540.06 237.807C539.081 242.556 538.148 247.316 537.262 252.083C452.043 255.446 375.611 289.21 317.422 352.07C272.24 400.842 244.034 462.913 237.011 529.025L222.46 529.05Z"/></svg>